<mxfile host="Electron" agent="Mozilla/5.0 (X11; Linux x86_64) AppleWebKit/537.36 (KHTML, like Gecko) draw.io/26.0.4 Chrome/128.0.6613.186 Electron/32.2.5 Safari/537.36" version="26.0.4">
  <diagram name="Page-1" id="U2o9H4dhODYUTWFSCKFU">
    <mxGraphModel dx="900" dy="872" grid="1" gridSize="10" guides="1" tooltips="1" connect="1" arrows="1" fold="1" page="1" pageScale="1" pageWidth="850" pageHeight="1100" math="0" shadow="0">
      <root>
        <mxCell id="0" />
        <mxCell id="1" parent="0" />
        <mxCell id="T1A0JYSn7Bl20UF-BHZc-7" style="edgeStyle=orthogonalEdgeStyle;rounded=0;orthogonalLoop=1;jettySize=auto;html=1;fillColor=#008a00;strokeColor=#005700;" edge="1" parent="1" source="T1A0JYSn7Bl20UF-BHZc-1" target="T1A0JYSn7Bl20UF-BHZc-6">
          <mxGeometry relative="1" as="geometry" />
        </mxCell>
        <mxCell id="T1A0JYSn7Bl20UF-BHZc-1" value="REST API" style="rounded=0;whiteSpace=wrap;html=1;fillColor=#008a00;fontColor=#ffffff;strokeColor=#005700;" vertex="1" parent="1">
          <mxGeometry x="400" y="200" width="80" height="40" as="geometry" />
        </mxCell>
        <mxCell id="T1A0JYSn7Bl20UF-BHZc-74" style="edgeStyle=orthogonalEdgeStyle;rounded=0;orthogonalLoop=1;jettySize=auto;html=1;fillColor=#d80073;strokeColor=#A50040;" edge="1" parent="1" source="T1A0JYSn7Bl20UF-BHZc-4" target="T1A0JYSn7Bl20UF-BHZc-15">
          <mxGeometry relative="1" as="geometry">
            <Array as="points">
              <mxPoint x="360" y="500" />
              <mxPoint x="440" y="500" />
            </Array>
          </mxGeometry>
        </mxCell>
        <mxCell id="T1A0JYSn7Bl20UF-BHZc-76" style="edgeStyle=orthogonalEdgeStyle;rounded=0;orthogonalLoop=1;jettySize=auto;html=1;fillColor=#d80073;strokeColor=#A50040;" edge="1" parent="1" source="T1A0JYSn7Bl20UF-BHZc-4" target="T1A0JYSn7Bl20UF-BHZc-66">
          <mxGeometry relative="1" as="geometry">
            <Array as="points">
              <mxPoint x="360" y="500" />
              <mxPoint x="200" y="500" />
            </Array>
          </mxGeometry>
        </mxCell>
        <mxCell id="T1A0JYSn7Bl20UF-BHZc-4" value="POST" style="whiteSpace=wrap;html=1;rounded=0;" vertex="1" parent="1">
          <mxGeometry x="320" y="360" width="80" height="40" as="geometry" />
        </mxCell>
        <mxCell id="T1A0JYSn7Bl20UF-BHZc-11" style="edgeStyle=orthogonalEdgeStyle;rounded=0;orthogonalLoop=1;jettySize=auto;html=1;fillColor=#d80073;strokeColor=#A50040;" edge="1" parent="1" source="T1A0JYSn7Bl20UF-BHZc-6" target="T1A0JYSn7Bl20UF-BHZc-4">
          <mxGeometry relative="1" as="geometry" />
        </mxCell>
        <mxCell id="T1A0JYSn7Bl20UF-BHZc-12" style="edgeStyle=orthogonalEdgeStyle;rounded=0;orthogonalLoop=1;jettySize=auto;html=1;fillColor=#0050ef;strokeColor=#001DBC;" edge="1" parent="1" source="T1A0JYSn7Bl20UF-BHZc-6" target="T1A0JYSn7Bl20UF-BHZc-8">
          <mxGeometry relative="1" as="geometry" />
        </mxCell>
        <mxCell id="T1A0JYSn7Bl20UF-BHZc-6" value="&lt;b&gt;/applications/&lt;/b&gt;" style="whiteSpace=wrap;html=1;rounded=0;" vertex="1" parent="1">
          <mxGeometry x="360" y="280" width="160" height="40" as="geometry" />
        </mxCell>
        <mxCell id="T1A0JYSn7Bl20UF-BHZc-87" style="edgeStyle=orthogonalEdgeStyle;rounded=0;orthogonalLoop=1;jettySize=auto;html=1;fillColor=#0050ef;strokeColor=#001DBC;" edge="1" parent="1" source="T1A0JYSn7Bl20UF-BHZc-8" target="T1A0JYSn7Bl20UF-BHZc-82">
          <mxGeometry relative="1" as="geometry" />
        </mxCell>
        <mxCell id="T1A0JYSn7Bl20UF-BHZc-8" value="GET" style="whiteSpace=wrap;html=1;rounded=0;" vertex="1" parent="1">
          <mxGeometry x="480" y="360" width="80" height="40" as="geometry" />
        </mxCell>
        <mxCell id="T1A0JYSn7Bl20UF-BHZc-44" style="edgeStyle=orthogonalEdgeStyle;rounded=0;orthogonalLoop=1;jettySize=auto;html=1;fillColor=#008a00;strokeColor=#005700;" edge="1" parent="1" source="T1A0JYSn7Bl20UF-BHZc-13" target="T1A0JYSn7Bl20UF-BHZc-15">
          <mxGeometry relative="1" as="geometry" />
        </mxCell>
        <mxCell id="T1A0JYSn7Bl20UF-BHZc-13" value="PostgreSQL" style="rounded=0;whiteSpace=wrap;html=1;fillColor=#008a00;strokeColor=#005700;fontColor=#ffffff;" vertex="1" parent="1">
          <mxGeometry x="400" y="440" width="80" height="40" as="geometry" />
        </mxCell>
        <mxCell id="T1A0JYSn7Bl20UF-BHZc-72" style="edgeStyle=orthogonalEdgeStyle;rounded=0;orthogonalLoop=1;jettySize=auto;html=1;fillColor=#008a00;strokeColor=#005700;" edge="1" parent="1" source="T1A0JYSn7Bl20UF-BHZc-14" target="T1A0JYSn7Bl20UF-BHZc-66">
          <mxGeometry relative="1" as="geometry" />
        </mxCell>
        <mxCell id="T1A0JYSn7Bl20UF-BHZc-14" value="Kafka" style="rounded=0;whiteSpace=wrap;html=1;fillColor=#008a00;fontColor=#ffffff;strokeColor=#005700;" vertex="1" parent="1">
          <mxGeometry x="160" y="440" width="80" height="40" as="geometry" />
        </mxCell>
        <mxCell id="T1A0JYSn7Bl20UF-BHZc-15" value="Application" style="shape=table;startSize=30;container=1;collapsible=1;childLayout=tableLayout;fixedRows=1;rowLines=0;fontStyle=1;align=center;resizeLast=1;html=1;" vertex="1" parent="1">
          <mxGeometry x="340" y="520" width="200" height="150" as="geometry" />
        </mxCell>
        <mxCell id="T1A0JYSn7Bl20UF-BHZc-16" value="" style="shape=tableRow;horizontal=0;startSize=0;swimlaneHead=0;swimlaneBody=0;fillColor=none;collapsible=0;dropTarget=0;points=[[0,0.5],[1,0.5]];portConstraint=eastwest;top=0;left=0;right=0;bottom=1;" vertex="1" parent="T1A0JYSn7Bl20UF-BHZc-15">
          <mxGeometry y="30" width="200" height="30" as="geometry" />
        </mxCell>
        <mxCell id="T1A0JYSn7Bl20UF-BHZc-17" value="PK" style="shape=partialRectangle;connectable=0;fillColor=none;top=0;left=0;bottom=0;right=0;fontStyle=1;overflow=hidden;whiteSpace=wrap;html=1;" vertex="1" parent="T1A0JYSn7Bl20UF-BHZc-16">
          <mxGeometry width="30" height="30" as="geometry">
            <mxRectangle width="30" height="30" as="alternateBounds" />
          </mxGeometry>
        </mxCell>
        <mxCell id="T1A0JYSn7Bl20UF-BHZc-18" value="id" style="shape=partialRectangle;connectable=0;fillColor=none;top=0;left=0;bottom=0;right=0;align=left;spacingLeft=6;fontStyle=5;overflow=hidden;whiteSpace=wrap;html=1;" vertex="1" parent="T1A0JYSn7Bl20UF-BHZc-16">
          <mxGeometry x="30" width="170" height="30" as="geometry">
            <mxRectangle width="170" height="30" as="alternateBounds" />
          </mxGeometry>
        </mxCell>
        <mxCell id="T1A0JYSn7Bl20UF-BHZc-19" value="" style="shape=tableRow;horizontal=0;startSize=0;swimlaneHead=0;swimlaneBody=0;fillColor=none;collapsible=0;dropTarget=0;points=[[0,0.5],[1,0.5]];portConstraint=eastwest;top=0;left=0;right=0;bottom=0;" vertex="1" parent="T1A0JYSn7Bl20UF-BHZc-15">
          <mxGeometry y="60" width="200" height="30" as="geometry" />
        </mxCell>
        <mxCell id="T1A0JYSn7Bl20UF-BHZc-20" value="&lt;b&gt;IDX&lt;/b&gt;" style="shape=partialRectangle;connectable=0;fillColor=none;top=0;left=0;bottom=0;right=0;editable=1;overflow=hidden;whiteSpace=wrap;html=1;" vertex="1" parent="T1A0JYSn7Bl20UF-BHZc-19">
          <mxGeometry width="30" height="30" as="geometry">
            <mxRectangle width="30" height="30" as="alternateBounds" />
          </mxGeometry>
        </mxCell>
        <mxCell id="T1A0JYSn7Bl20UF-BHZc-21" value="user_name" style="shape=partialRectangle;connectable=0;fillColor=none;top=0;left=0;bottom=0;right=0;align=left;spacingLeft=6;overflow=hidden;whiteSpace=wrap;html=1;" vertex="1" parent="T1A0JYSn7Bl20UF-BHZc-19">
          <mxGeometry x="30" width="170" height="30" as="geometry">
            <mxRectangle width="170" height="30" as="alternateBounds" />
          </mxGeometry>
        </mxCell>
        <mxCell id="T1A0JYSn7Bl20UF-BHZc-22" value="" style="shape=tableRow;horizontal=0;startSize=0;swimlaneHead=0;swimlaneBody=0;fillColor=none;collapsible=0;dropTarget=0;points=[[0,0.5],[1,0.5]];portConstraint=eastwest;top=0;left=0;right=0;bottom=0;" vertex="1" parent="T1A0JYSn7Bl20UF-BHZc-15">
          <mxGeometry y="90" width="200" height="30" as="geometry" />
        </mxCell>
        <mxCell id="T1A0JYSn7Bl20UF-BHZc-23" value="&lt;b&gt;NN&lt;/b&gt;" style="shape=partialRectangle;connectable=0;fillColor=none;top=0;left=0;bottom=0;right=0;editable=1;overflow=hidden;whiteSpace=wrap;html=1;" vertex="1" parent="T1A0JYSn7Bl20UF-BHZc-22">
          <mxGeometry width="30" height="30" as="geometry">
            <mxRectangle width="30" height="30" as="alternateBounds" />
          </mxGeometry>
        </mxCell>
        <mxCell id="T1A0JYSn7Bl20UF-BHZc-24" value="description" style="shape=partialRectangle;connectable=0;fillColor=none;top=0;left=0;bottom=0;right=0;align=left;spacingLeft=6;overflow=hidden;whiteSpace=wrap;html=1;" vertex="1" parent="T1A0JYSn7Bl20UF-BHZc-22">
          <mxGeometry x="30" width="170" height="30" as="geometry">
            <mxRectangle width="170" height="30" as="alternateBounds" />
          </mxGeometry>
        </mxCell>
        <mxCell id="T1A0JYSn7Bl20UF-BHZc-25" value="" style="shape=tableRow;horizontal=0;startSize=0;swimlaneHead=0;swimlaneBody=0;fillColor=none;collapsible=0;dropTarget=0;points=[[0,0.5],[1,0.5]];portConstraint=eastwest;top=0;left=0;right=0;bottom=0;" vertex="1" parent="T1A0JYSn7Bl20UF-BHZc-15">
          <mxGeometry y="120" width="200" height="30" as="geometry" />
        </mxCell>
        <mxCell id="T1A0JYSn7Bl20UF-BHZc-26" value="&lt;b&gt;NN&lt;/b&gt;" style="shape=partialRectangle;connectable=0;fillColor=none;top=0;left=0;bottom=0;right=0;editable=1;overflow=hidden;whiteSpace=wrap;html=1;" vertex="1" parent="T1A0JYSn7Bl20UF-BHZc-25">
          <mxGeometry width="30" height="30" as="geometry">
            <mxRectangle width="30" height="30" as="alternateBounds" />
          </mxGeometry>
        </mxCell>
        <mxCell id="T1A0JYSn7Bl20UF-BHZc-27" value="created_at" style="shape=partialRectangle;connectable=0;fillColor=none;top=0;left=0;bottom=0;right=0;align=left;spacingLeft=6;overflow=hidden;whiteSpace=wrap;html=1;" vertex="1" parent="T1A0JYSn7Bl20UF-BHZc-25">
          <mxGeometry x="30" width="170" height="30" as="geometry">
            <mxRectangle width="170" height="30" as="alternateBounds" />
          </mxGeometry>
        </mxCell>
        <mxCell id="T1A0JYSn7Bl20UF-BHZc-28" value="&lt;b&gt;Filter&lt;/b&gt;" style="swimlane;fontStyle=0;childLayout=stackLayout;horizontal=1;startSize=30;horizontalStack=0;resizeParent=1;resizeParentMax=0;resizeLast=0;collapsible=1;marginBottom=0;whiteSpace=wrap;html=1;" vertex="1" parent="1">
          <mxGeometry x="600" y="520" width="160" height="60" as="geometry" />
        </mxCell>
        <mxCell id="T1A0JYSn7Bl20UF-BHZc-29" value="user_name" style="text;strokeColor=none;fillColor=none;align=left;verticalAlign=middle;spacingLeft=4;spacingRight=4;overflow=hidden;points=[[0,0.5],[1,0.5]];portConstraint=eastwest;rotatable=0;whiteSpace=wrap;html=1;" vertex="1" parent="T1A0JYSn7Bl20UF-BHZc-28">
          <mxGeometry y="30" width="160" height="30" as="geometry" />
        </mxCell>
        <mxCell id="T1A0JYSn7Bl20UF-BHZc-32" value="&lt;b&gt;Pagination&lt;/b&gt;" style="swimlane;fontStyle=0;childLayout=stackLayout;horizontal=1;startSize=30;horizontalStack=0;resizeParent=1;resizeParentMax=0;resizeLast=0;collapsible=1;marginBottom=0;whiteSpace=wrap;html=1;" vertex="1" parent="1">
          <mxGeometry x="600" y="600" width="160" height="90" as="geometry" />
        </mxCell>
        <mxCell id="T1A0JYSn7Bl20UF-BHZc-33" value="page" style="text;strokeColor=none;fillColor=none;align=left;verticalAlign=middle;spacingLeft=4;spacingRight=4;overflow=hidden;points=[[0,0.5],[1,0.5]];portConstraint=eastwest;rotatable=0;whiteSpace=wrap;html=1;" vertex="1" parent="T1A0JYSn7Bl20UF-BHZc-32">
          <mxGeometry y="30" width="160" height="30" as="geometry" />
        </mxCell>
        <mxCell id="T1A0JYSn7Bl20UF-BHZc-34" value="size" style="text;strokeColor=none;fillColor=none;align=left;verticalAlign=middle;spacingLeft=4;spacingRight=4;overflow=hidden;points=[[0,0.5],[1,0.5]];portConstraint=eastwest;rotatable=0;whiteSpace=wrap;html=1;" vertex="1" parent="T1A0JYSn7Bl20UF-BHZc-32">
          <mxGeometry y="60" width="160" height="30" as="geometry" />
        </mxCell>
        <mxCell id="T1A0JYSn7Bl20UF-BHZc-66" value="&lt;b&gt;Topic :: Kafka&lt;/b&gt;" style="swimlane;fontStyle=0;childLayout=stackLayout;horizontal=1;startSize=30;horizontalStack=0;resizeParent=1;resizeParentMax=0;resizeLast=0;collapsible=1;marginBottom=0;whiteSpace=wrap;html=1;" vertex="1" parent="1">
          <mxGeometry x="120" y="520" width="160" height="150" as="geometry" />
        </mxCell>
        <mxCell id="T1A0JYSn7Bl20UF-BHZc-67" value="id" style="text;strokeColor=none;fillColor=none;align=left;verticalAlign=middle;spacingLeft=4;spacingRight=4;overflow=hidden;points=[[0,0.5],[1,0.5]];portConstraint=eastwest;rotatable=0;whiteSpace=wrap;html=1;" vertex="1" parent="T1A0JYSn7Bl20UF-BHZc-66">
          <mxGeometry y="30" width="160" height="30" as="geometry" />
        </mxCell>
        <mxCell id="T1A0JYSn7Bl20UF-BHZc-68" value="user_name" style="text;strokeColor=none;fillColor=none;align=left;verticalAlign=middle;spacingLeft=4;spacingRight=4;overflow=hidden;points=[[0,0.5],[1,0.5]];portConstraint=eastwest;rotatable=0;whiteSpace=wrap;html=1;" vertex="1" parent="T1A0JYSn7Bl20UF-BHZc-66">
          <mxGeometry y="60" width="160" height="30" as="geometry" />
        </mxCell>
        <mxCell id="T1A0JYSn7Bl20UF-BHZc-70" value="description" style="text;strokeColor=none;fillColor=none;align=left;verticalAlign=middle;spacingLeft=4;spacingRight=4;overflow=hidden;points=[[0,0.5],[1,0.5]];portConstraint=eastwest;rotatable=0;whiteSpace=wrap;html=1;" vertex="1" parent="T1A0JYSn7Bl20UF-BHZc-66">
          <mxGeometry y="90" width="160" height="30" as="geometry" />
        </mxCell>
        <mxCell id="T1A0JYSn7Bl20UF-BHZc-69" value="created_at" style="text;strokeColor=none;fillColor=none;align=left;verticalAlign=middle;spacingLeft=4;spacingRight=4;overflow=hidden;points=[[0,0.5],[1,0.5]];portConstraint=eastwest;rotatable=0;whiteSpace=wrap;html=1;" vertex="1" parent="T1A0JYSn7Bl20UF-BHZc-66">
          <mxGeometry y="120" width="160" height="30" as="geometry" />
        </mxCell>
        <mxCell id="T1A0JYSn7Bl20UF-BHZc-83" style="edgeStyle=orthogonalEdgeStyle;rounded=0;orthogonalLoop=1;jettySize=auto;html=1;fillColor=#f0a30a;strokeColor=#BD7000;" edge="1" parent="1" source="T1A0JYSn7Bl20UF-BHZc-82" target="T1A0JYSn7Bl20UF-BHZc-28">
          <mxGeometry relative="1" as="geometry" />
        </mxCell>
        <mxCell id="T1A0JYSn7Bl20UF-BHZc-84" style="edgeStyle=orthogonalEdgeStyle;rounded=0;orthogonalLoop=1;jettySize=auto;html=1;fillColor=#f0a30a;strokeColor=#BD7000;" edge="1" parent="1" source="T1A0JYSn7Bl20UF-BHZc-82" target="T1A0JYSn7Bl20UF-BHZc-32">
          <mxGeometry relative="1" as="geometry">
            <Array as="points">
              <mxPoint x="680" y="500" />
              <mxPoint x="570" y="500" />
              <mxPoint x="570" y="645" />
            </Array>
          </mxGeometry>
        </mxCell>
        <mxCell id="T1A0JYSn7Bl20UF-BHZc-88" style="edgeStyle=orthogonalEdgeStyle;rounded=0;orthogonalLoop=1;jettySize=auto;html=1;fillColor=#0050ef;strokeColor=#001DBC;" edge="1" parent="1" source="T1A0JYSn7Bl20UF-BHZc-82" target="T1A0JYSn7Bl20UF-BHZc-15">
          <mxGeometry relative="1" as="geometry">
            <Array as="points">
              <mxPoint x="680" y="500" />
              <mxPoint x="440" y="500" />
            </Array>
          </mxGeometry>
        </mxCell>
        <mxCell id="T1A0JYSn7Bl20UF-BHZc-82" value="Query" style="rounded=0;whiteSpace=wrap;html=1;fillColor=#f0a30a;strokeColor=#BD7000;fontColor=#000000;" vertex="1" parent="1">
          <mxGeometry x="640" y="440" width="80" height="40" as="geometry" />
        </mxCell>
        <mxCell id="T1A0JYSn7Bl20UF-BHZc-89" style="edgeStyle=orthogonalEdgeStyle;rounded=0;orthogonalLoop=1;jettySize=auto;html=1;" edge="1" parent="1" source="T1A0JYSn7Bl20UF-BHZc-25" target="T1A0JYSn7Bl20UF-BHZc-69">
          <mxGeometry relative="1" as="geometry" />
        </mxCell>
        <mxCell id="T1A0JYSn7Bl20UF-BHZc-90" style="edgeStyle=orthogonalEdgeStyle;rounded=0;orthogonalLoop=1;jettySize=auto;html=1;" edge="1" parent="1" source="T1A0JYSn7Bl20UF-BHZc-22" target="T1A0JYSn7Bl20UF-BHZc-70">
          <mxGeometry relative="1" as="geometry" />
        </mxCell>
        <mxCell id="T1A0JYSn7Bl20UF-BHZc-91" style="edgeStyle=orthogonalEdgeStyle;rounded=0;orthogonalLoop=1;jettySize=auto;html=1;" edge="1" parent="1" source="T1A0JYSn7Bl20UF-BHZc-19" target="T1A0JYSn7Bl20UF-BHZc-68">
          <mxGeometry relative="1" as="geometry" />
        </mxCell>
        <mxCell id="T1A0JYSn7Bl20UF-BHZc-92" style="edgeStyle=orthogonalEdgeStyle;rounded=0;orthogonalLoop=1;jettySize=auto;html=1;" edge="1" parent="1" source="T1A0JYSn7Bl20UF-BHZc-16" target="T1A0JYSn7Bl20UF-BHZc-67">
          <mxGeometry relative="1" as="geometry" />
        </mxCell>
      </root>
    </mxGraphModel>
  </diagram>
</mxfile>
